# xmcd
#
# Track frame offsets: 
#        150
#        12891
#        26032
#        38551
#        53382
#        67930
#        81178
#        93533
#        108074
#        122965
#        136847
#        149922
#        162255
#        174425
#        185951
#        199282
#        212373
#        224398
#        238765
#        250901
#        264820
#        276745
#        290563
#        303653
#
# Disc length: 4241 seconds
#
# Revision: 0
# Processed by: cddbd v1.5.2PL0 Copyright (c) Steve Scherf et al.
# Submitted via: ExactAudioCopy v1.0b3
#
DISCID=68108f18
DTITLE=Elkins-Payne Jubilee Singers - In Chronological Order 1923-1929
DYEAR=1995
DGENRE=Gospel
TTITLE0=Down By The Riverside
TTITLE1=Standing In The Need Of Prayer (take 1)
TTITLE2=Standing In The Need Of Prayer (take 2)
TTITLE3=Elder Take It All - Pt. 1 (See Me Fo' You Go)
TTITLE4=Elder Take It All - Pt. 2 (On Dancing)
TTITLE5=When The Saints Go Marching In
TTITLE6=Ezekiel Saw De Wheel
TTITLE7=You Must Shun Old Satan
TTITLE8=Little David, Play On Yo' Harp
TTITLE9=Wheel In A Wheel (Ezekiel Saw de Wheel) (x-98)
TTITLE10=Couldn't Hear Nobody Pray
TTITLE11=I Got A Robe (Goin' To Shout All Over God's Heaven)
TTITLE12=Nobody Knows The Trouble I've Seen
TTITLE13=Christians, Hold Your Light
TTITLE14=Silent Night Holy Night
TTITLE15=Christians Awake
TTITLE16=Pickin' On The Harp Wid De Golden Strings
TTITLE17=The Downward Road Is Crowded
TTITLE18=Joshue Fit De Battle Of Jericho
TTITLE19=A Wheel In A Wheel (343)
TTITLE20=Ride On Moses
TTITLE21=Eloi
TTITLE22=Great Day
TTITLE23=Without A Song
EXTD=
EXTT0=
EXTT1=
EXTT2=
EXTT3=
EXTT4=
EXTT5=
EXTT6=
EXTT7=
EXTT8=
EXTT9=
EXTT10=
EXTT11=
EXTT12=
EXTT13=
EXTT14=
EXTT15=
EXTT16=
EXTT17=
EXTT18=
EXTT19=
EXTT20=
EXTT21=
EXTT22=
EXTT23=
PLAYORDER=
